<?xml version="1.0" encoding="utf-8"?>
<!-- Generator: Adobe Illustrator 18.1.1, SVG Export Plug-In . SVG Version: 6.00 Build 0)  -->
<svg version="1.1" id="Layer_1" xmlns="http://www.w3.org/2000/svg" xmlns:xlink="http://www.w3.org/1999/xlink" x="0px" y="0px"
	 viewBox="0 0 252 144" enable-background="new 0 0 252 144" xml:space="preserve">
<g>
	<g>
		<polygon fill="#FFFFFF" points="52.8,79.1 58.9,124.4 75.8,93.6 		"/>
		<path d="M58.9,128.5c-0.3,0-0.5,0-0.8-0.1c-1.8-0.3-3.1-1.8-3.4-3.5l-6-45.3c-0.3-2.3,1.3-4.4,3.6-4.7c2.3-0.3,4.4,1.3,4.7,3.6
			l4.3,32.7l10.8-19.7c1.1-2,3.6-2.7,5.6-1.6c2,1.1,2.8,3.6,1.6,5.6l-16.9,30.8C61.8,127.7,60.4,128.5,58.9,128.5z"/>
	</g>
	<g>
		<path d="M125.4,107.3c-45.4,0-71.1-18.7-84.6-34.4C26,55.8,22.2,38.8,22,38.1c-0.5-2.2,0.9-4.5,3.2-5c2.2-0.5,4.5,0.9,4.9,3.2l0,0
			c0,0.2,3.7,15.9,17.2,31.5C65.4,88.5,91.6,99,125.4,99c33.4,0,59.8-10.6,78.4-31.6c13.8-15.6,18-31.1,18-31.2
			c0.6-2.2,2.8-3.6,5.1-3c2.2,0.6,3.6,2.8,3,5.1c-0.2,0.7-4.7,17.7-19.8,34.7C196.1,88.6,170.1,107.3,125.4,107.3z"/>
	</g>
</g>
</svg>
