<?xml version="1.0" encoding="utf-8"?>
<!-- Generator: Adobe Illustrator 18.1.1, SVG Export Plug-In . SVG Version: 6.00 Build 0)  -->
<svg version="1.1" id="Layer_1" xmlns="http://www.w3.org/2000/svg" xmlns:xlink="http://www.w3.org/1999/xlink" x="0px" y="0px"
	 viewBox="0 0 62.9 33.9" enable-background="new 0 0 62.9 33.9" xml:space="preserve">
<g>
	<g>
		<g>
			<g>
				<path fill="#414042" d="M26,27c-0.8,0-1.6-0.6-1.8-1.4l-3.9-16l-3.9,16c-0.2,1-1.2,1.6-2.2,1.3c-1-0.2-1.6-1.2-1.3-2.2l5.6-23.3
					C18.7,0.6,19.4,0,20.3,0h0c0.8,0,1.6,0.6,1.8,1.4l5.7,23.3c0.2,1-0.4,2-1.3,2.2C26.2,26.9,26.1,27,26,27z"/>
			</g>
		</g>
		<g>
			<g>
				<path fill="#414042" d="M43.9,27c-0.7,0-1.4-0.4-1.7-1.1l-6.3-15v14.3c0,1-0.8,1.8-1.8,1.8s-1.8-0.8-1.8-1.8V1.8
					c0-0.9,0.6-1.6,1.5-1.8c0.8-0.2,1.7,0.3,2,1.1l6.3,15V1.8c0-1,0.8-1.8,1.8-1.8c1,0,1.8,0.8,1.8,1.8v23.3c0,0.9-0.6,1.6-1.5,1.8
					C44.1,26.9,44,27,43.9,27z"/>
			</g>
		</g>
		<g>
			<g>
				<path fill="#414042" d="M61.1,27c-6.4,0-11.7-6-11.7-13.4C49.5,6.1,54.7,0,61.1,0c1,0,1.8,0.8,1.8,1.8s-0.8,1.8-1.8,1.8
					c-4.4,0-8,4.4-8,9.9c0,4.6,2.6,8.5,6.2,9.5v-9.5c0-1,0.8-1.8,1.8-1.8c1,0,1.8,0.8,1.8,1.8v11.6C62.9,26.1,62.1,27,61.1,27z"/>
			</g>
		</g>
		<g>
			<g>
				<g>
					<path fill="#414042" d="M1.8,27c-1,0-1.8-0.8-1.8-1.8V1.8C0,0.8,0.8,0,1.8,0h9.8c1,0,1.8,0.8,1.8,1.8s-0.8,1.8-1.8,1.8h-8v21.5
						C3.6,26.1,2.8,27,1.8,27z"/>
				</g>
			</g>
			<g>
				<g>
					<path fill="#414042" d="M7.1,15.3H1.8c-1,0-1.8-0.8-1.8-1.8s0.8-1.8,1.8-1.8h5.3c1,0,1.8,0.8,1.8,1.8S8.1,15.3,7.1,15.3z"/>
				</g>
			</g>
		</g>
	</g>
	<g>
		<path fill="#414042" d="M0,29.4h0.5v3.9H4v0.5H0V29.4z"/>
		<path fill="#414042" d="M20.8,29.4h0.6l2.2,4.4h-0.6l-0.6-1.1h-2.8l-0.6,1.1h-0.6L20.8,29.4z M22.3,32.2l-1.2-2.3L20,32.2H22.3z"
			/>
		<path fill="#414042" d="M38.8,29.4h2.5c0.5,0,1.7,0,1.7,1.1c0,0.6-0.4,0.8-0.7,0.9c0.3,0.1,0.8,0.4,0.8,1.1c0,1.2-1.2,1.2-2.1,1.2
			h-2.2V29.4z M39.3,31.3h1.9c0.6,0,1.3-0.1,1.3-0.7c0-0.7-0.7-0.7-1.5-0.7h-1.7V31.3z M39.3,33.3h2c0.6,0,1.3-0.1,1.3-0.8
			c0-0.6-0.5-0.8-1.2-0.8h-2.1V33.3z"/>
		<path fill="#414042" d="M58.6,32.5c0.3,0.3,0.7,0.9,2,0.9c0.7,0,1.6-0.2,1.6-0.9c0-1.3-3.8-0.2-3.8-1.9c0-0.9,0.9-1.3,2-1.3
			c1.2,0,1.9,0.5,2.2,0.9l-0.4,0.3c-0.2-0.2-0.6-0.8-1.8-0.8c-0.9,0-1.5,0.2-1.5,0.8c0,1.3,3.8,0.1,3.8,2c0,0.7-0.7,1.3-2.2,1.3
			c-1.4,0-2-0.6-2.3-1L58.6,32.5z"/>
	</g>
</g>
</svg>
